<svg width="80" height="70" viewBox="0 0 80 70" fill="none" xmlns="http://www.w3.org/2000/svg">
<g clip-path="url(#clip0_1_71)">
<path d="M2.06109 51.9132L1.64936 30.9877H0V24.7007H1.31851L1.35037 26.3032H2.35027V24.7007H3.7423V26.2933L4.75201 26.2835V24.7007H6.12444V26.3351L7.11209 26.313V24.7007H8.51637V30.9656L6.76163 31.0295L6.67096 51.9132H2.06109Z" fill="white"/>
<path d="M6.86699 33.3447L9.43538 26.7677L12.3518 34.4802H11.1754V39.0099L12.4743 36.8372L14.1237 40.9122L14.2487 27.8442C14.2487 27.8442 14.1433 27.677 12.7782 26.8611C12.7782 26.8611 12.5674 26.7431 12.413 25.0054C12.413 25.0054 11.8665 24.3861 11.9499 24.364V24.0862H14.2389V19.2886H11.396L18.2581 0L25.0418 19.3034L22.2577 19.3255L22.2259 25.2832L23.3532 25.2979L23.3385 26.2982H24.0958V25.2586H25.1545V26.3056H25.9682V25.2905L27.0882 25.2758V30.4371L25.6398 30.4568V36.4439C25.6398 36.4439 17.6307 41.3964 14.6604 57.4408L14.1702 51.8985H8.66094L8.68055 42.3672H7.83504L7.85709 34.49L6.24695 34.5097L6.86699 33.3447Z" fill="white"/>
<path d="M27.9165 34.1287V22.0856H26.3088L30.1639 11.1484L34.1022 22.0044L32.4945 22.0659L32.5362 24.4032L33.7616 24.445C33.7616 24.445 34.0704 25.7673 32.5656 27.0281L32.5877 30.6263C30.9259 31.6463 29.3622 32.8188 27.9165 34.1287Z" fill="white"/>
<path d="M17.3097 59.9968C17.3097 59.9968 17.567 45.6581 27.4632 38.0734C27.4632 38.0734 36.0408 31.2334 42.5574 29.4983C41.8212 28.4823 40.9881 27.5406 40.0699 26.6866C40.0699 26.6866 45.4615 28.9797 47.0594 28.1121C47.0594 28.1121 49.4195 27.5124 51.6987 23.5848C51.6987 23.5848 48.9882 28.7953 51.5026 32.7646L58.0167 33.1775C58.0167 33.1775 58.1001 32.0199 56.1836 29.631C56.1836 29.631 60.8228 34.6571 66.0479 31.1671C66.0479 31.1671 62.1266 35.1831 63.9917 39.091C63.9917 39.091 68.2658 40.9736 68.4913 41.0965C68.4913 41.0965 68.9447 39.2163 68.8221 38.393C68.8221 38.393 69.523 44.6382 76.0592 44.7217C76.0592 44.7217 70.6161 45.609 69.9764 49.9519C69.9764 49.9519 72.6723 54.1498 72.9443 54.7691C72.9443 54.7691 74.204 55.5065 79.9976 52.621C79.9976 52.621 72.0179 56.7132 75.4514 66.7311C75.4514 66.7311 69.5132 58.2346 60.5753 63.568L64.1632 60.0632H43.072C42.9839 59.0672 42.7655 58.0872 42.4226 57.1483C42.4226 57.1483 41.6187 54.978 42.9789 53.4886C42.9789 53.4886 44.4322 51.751 43.9077 51.4733L41.5869 50.8736C41.5869 50.8736 41.2585 48.111 39.2979 48.7746C39.2979 48.7746 37.3961 49.6987 38.369 52.2008C38.4011 52.2891 38.4466 52.372 38.5038 52.4465C38.8126 52.8472 39.864 53.963 41.1188 52.4736C41.2598 52.3038 41.3596 52.1036 41.4104 51.8886C41.5372 51.3358 41.6191 50.7736 41.6555 50.2075L43.594 51.3774C43.2693 51.5629 42.9917 51.8211 42.7828 52.1319C42.7828 52.1319 41.778 54.0121 39.8419 54.4668C39.8419 54.4668 38.5847 54.489 37.4721 53.2379C37.4721 53.2379 36.2467 51.7903 35.7296 52.7833C35.7296 52.7833 35.5335 53.0413 36.553 53.7541C36.553 53.7541 38.3274 55.2631 38.4205 55.853C38.3311 57.2706 38.1675 58.6825 37.9303 60.0829L36.303 60.0607C36.303 60.0607 34.8326 53.9826 35.188 52.2647C35.188 52.2647 36.2197 49.2047 37.9107 47.7571C37.9107 47.7571 40.3223 45.4738 38.7955 45.1592C38.7955 45.1592 37.972 44.6677 36.0751 47.966L33.8082 47.9021C33.8082 47.9021 33.9552 45.0486 32.3573 45.3608C31.9484 45.4517 31.5887 45.6939 31.3501 46.0391C30.9589 46.5312 30.734 47.1353 30.708 47.7641C30.682 48.3929 30.8562 49.0137 31.2055 49.5365C31.254 49.615 31.3163 49.6841 31.3893 49.7405C31.752 50.0183 32.8597 50.6401 33.7248 48.605C33.7248 48.605 33.8474 47.7645 33.8694 47.2262L36.1266 47.8751C36.1266 47.8751 34.6561 50.001 33.6758 50.5491C33.2087 50.8889 32.6452 51.0694 32.0682 51.0641C31.4912 51.0588 30.9311 50.868 30.4702 50.5196C29.6308 49.8038 28.8767 48.9931 28.2229 48.1036C28.2229 48.1036 26.0564 45.3608 25.7722 45.2821C25.7722 45.2821 24.7355 44.9405 24.6497 45.7319C24.6497 45.7319 24.7673 46.103 26.25 47.6981C26.25 47.6981 29.762 51.8763 29.6517 52.304C29.8128 53.3932 29.6869 54.5057 29.2865 55.531C29.2865 55.531 28.2033 58.9891 28.0342 60.0583L26.8725 60.0288C26.8725 60.0288 26.5172 57.5317 26.549 57.1114C26.549 57.1114 26.4241 55.8825 27.4607 54.5848C27.4607 54.5848 29.0856 53.0192 28.838 52.5842C28.838 52.5842 28.4263 51.6011 26.8358 53.8893C26.8253 53.9048 26.8091 53.9156 26.7908 53.9193C26.7724 53.923 26.7534 53.9192 26.7377 53.9089L25.8383 53.2969C25.8383 53.2969 26.5588 52.771 26.5123 51.3479C26.5066 51.0005 26.4185 50.6595 26.2553 50.353C26.0921 50.0466 25.8584 49.7836 25.5736 49.5857C25.0835 49.2588 24.4316 49.131 23.7748 49.9199C23.4981 50.2534 23.2977 50.6437 23.1876 51.0632C23.0775 51.4827 23.0605 51.9214 23.1376 52.3482C23.2944 53.2158 23.8042 54.1375 25.3261 53.6853C25.6972 53.4418 26.0122 53.1217 26.25 52.7464L26.8358 53.8966C26.8358 53.8966 26.6789 54.0416 26.3677 54.28C26.3677 54.28 25.331 55.2214 24.064 55.0174C23.6857 54.9155 23.3312 54.7398 23.0209 54.5002C22.7105 54.2606 22.4503 53.962 22.2553 53.6214C22.2553 53.6214 21.699 52.5817 20.9393 52.6579C20.9393 52.6579 19.905 52.7685 20.9858 53.7442C21.7273 54.4434 22.3403 55.2678 22.7969 56.1799C22.7969 56.1799 23.042 56.728 21.9465 60.0263L17.3097 59.9968Z" fill="white"/>
<path d="M4.70056 63.3665C4.70056 63.3665 5.60979 54.2285 3.25706 58.0331C3.25706 58.0331 2.03168 59.9158 0.909237 59.1072C0.712458 58.958 0.559893 58.758 0.467924 58.5285C0.375956 58.299 0.348059 58.0487 0.387227 57.8045C0.524469 56.7968 0.997465 54.8282 2.59291 54.3096C2.59291 54.3096 7.92575 54.8232 11.7024 54.3096C11.7024 54.3096 14.6555 54.9609 14.0992 58.1339C14.0525 58.4492 13.9036 58.7404 13.6755 58.9625C13.4474 59.1846 13.1528 59.3252 12.8371 59.3628C12.3739 59.3996 11.8249 59.2079 11.3298 58.4091C11.3298 58.4091 9.76382 55.4746 9.51629 58.8442L9.5555 64.1333C9.55876 64.2712 9.55221 64.4092 9.5359 64.5462C9.50404 64.7797 9.5359 65.3794 10.5432 65.8341C10.8175 65.9497 11.0417 66.1598 11.1755 66.4264C11.4205 66.9401 11.2882 67.7118 8.69039 68.0043C8.69039 68.0043 3.29872 68.3607 2.87719 66.7312C2.87719 66.7312 2.71789 66.1266 3.94817 65.6891C3.95798 65.6842 4.42852 65.549 4.70056 63.3665Z" fill="white"/>
<path d="M17.3097 65.1484L20.03 65.114C20.03 65.114 20.6035 65.1607 20.6329 64.4627C20.6329 64.4627 20.8191 62.1524 17.9591 61.8427L17.8194 62.8823C17.8194 62.8823 18.5326 63.1699 18.3267 63.7573C18.3056 63.8214 18.2672 63.8783 18.2157 63.9217C18.1642 63.9651 18.1016 63.9933 18.0351 64.0031C17.7663 64.0546 17.4902 64.0546 17.2214 64.0031C17.1481 63.9775 17.0848 63.9292 17.0408 63.8651C16.9967 63.801 16.9741 63.7245 16.9764 63.6467C16.9764 63.3714 17.0376 62.7865 18.0596 62.9512L18.0939 61.8648C17.4708 61.7838 16.8379 61.8962 16.2803 62.1868C16.2803 62.1868 13.5649 63.1576 14.7707 66.4043C14.7707 66.4043 16.0181 69.0194 19.2972 67.6332C19.2972 67.6332 20.9049 67.0139 20.1721 66.0209C20.1721 66.0209 19.9271 65.7284 19.1551 66.2225C19.0652 66.2819 18.9657 66.3252 18.861 66.3503C18.5598 66.4264 18.2433 66.4156 17.948 66.319C17.6527 66.2225 17.3906 66.0442 17.192 65.8046C17.192 65.8046 16.7607 65.2565 17.1406 65.1632L17.3097 65.1484Z" fill="white"/>
<path d="M32.1906 65.1779L34.9134 65.1435C34.9134 65.1435 35.4845 65.1902 35.5163 64.4921C35.5163 64.4921 35.7001 62.1818 32.8401 61.8722L32.7004 62.9118C32.7004 62.9118 33.4136 63.1994 33.2077 63.7868C33.1866 63.8508 33.1481 63.9077 33.0966 63.9511C33.0451 63.9945 32.9826 64.0227 32.9161 64.0325C32.6473 64.0841 32.3712 64.0841 32.1024 64.0325C32.0291 64.007 31.9658 63.9586 31.9217 63.8946C31.8777 63.8305 31.8551 63.754 31.8573 63.6762C31.8573 63.4009 31.9186 62.8135 32.9406 62.9806L32.9749 61.8943C32.352 61.8132 31.7193 61.9247 31.1613 62.2138C31.1613 62.2138 28.4459 63.1969 29.6517 66.4338C29.6517 66.4338 30.8991 69.0489 34.1782 67.6627C34.1782 67.6627 35.7859 67.0433 35.0531 66.0504C35.0531 66.0504 34.808 65.7579 34.0361 66.2519C33.9468 66.3109 33.8482 66.3541 33.7444 66.3797C33.4432 66.4562 33.1266 66.4455 32.8313 66.3489C32.5359 66.2524 32.2738 66.0739 32.0755 65.8341C32.0755 65.8341 31.6417 65.286 32.024 65.1926L32.1906 65.1779Z" fill="white"/>
<path d="M22.1009 65.0353C22.1352 64.7158 22.1793 63.9269 21.7995 63.8433C21.6269 63.8196 21.4663 63.7412 21.3412 63.6197C21.177 63.4378 21.0961 63.1428 21.547 62.7471C21.7311 62.5919 21.9421 62.4719 22.1695 62.3932C22.6768 62.2113 23.7478 61.8574 24.3924 61.8648C24.4875 61.868 24.5781 61.9061 24.6472 61.9717C24.7163 62.0374 24.759 62.1261 24.7673 62.2212C24.7673 62.4448 24.9462 62.6439 25.8162 62.0221V63.713C25.7223 63.6702 25.6204 63.6477 25.5172 63.647C25.414 63.6462 25.3118 63.6673 25.2172 63.7088C25.1227 63.7503 25.0379 63.8113 24.9684 63.8878C24.8989 63.9644 24.8463 64.0547 24.8139 64.153C24.8139 64.153 24.2992 66.5002 25.4952 66.4068C25.4952 66.4068 26.5221 66.333 26.0981 64.3619C26.0638 64.2099 26.0103 64.0628 25.9388 63.9244C25.7648 63.5951 25.4143 63.0494 24.9805 63.0765L25.7158 62.1057C25.8701 61.9009 26.096 61.7621 26.3481 61.7173C26.8529 61.6264 27.6935 61.6215 28.1763 62.3957C28.1763 62.3957 30.8722 66.016 26.8382 67.9232C26.6445 68.0139 26.4317 68.0561 26.2182 68.0461C25.8556 68.0237 25.4974 67.9551 25.1521 67.8421C25.1232 67.8329 25.0927 67.8301 25.0626 67.8339C25.0326 67.8377 25.0037 67.848 24.9781 67.8642C24.9524 67.8803 24.9305 67.9019 24.914 67.9273C24.8975 67.9528 24.8868 67.9816 24.8825 68.0117C24.8433 68.2698 24.9609 68.5278 25.2281 68.8252C25.2281 68.8252 26.1152 69.6732 24.7526 69.9435C24.7526 69.9435 22.0127 70.3564 21.1966 68.9604C21.1966 68.9604 20.9515 68.3976 21.6598 68.2993C21.6598 68.2993 21.7602 68.3435 22.0347 67.3162C22.0738 67.1704 22.0912 67.0197 22.0862 66.8688C22.0862 66.5247 22.0641 65.871 22.069 65.4065C22.0735 65.2823 22.0841 65.1584 22.1009 65.0353Z" fill="white"/>
<path d="M36.33 66.51C36.33 66.51 36.5628 63.3468 36.1609 63.2853C36.1609 63.2853 35.1634 62.4939 36.406 62.0122C36.406 62.0122 38.2735 61.6878 38.891 62.1523C39.3576 62.7586 39.7378 63.4269 40.0208 64.1382C40.0208 64.1382 40.2365 64.9738 40.5772 64.121C40.5772 64.121 41.0845 62.5947 41.8516 62.081C41.9502 62.015 42.0625 61.9722 42.18 61.9557C42.5868 61.8942 43.7239 61.7714 44.3856 62.1843C44.4688 62.233 44.5387 62.3016 44.5892 62.3839C44.6396 62.4662 44.669 62.5597 44.6748 62.6562C44.6852 62.7561 44.6664 62.8569 44.6208 62.9464C44.5751 63.0358 44.5045 63.1101 44.4175 63.16C44.4175 63.16 44.1847 63.2214 44.1847 63.7032C44.1847 63.7032 44.0401 65.5023 44.1626 66.3207C44.181 66.4345 44.2321 66.5404 44.3097 66.6255C44.4072 66.7011 44.4874 66.7969 44.5449 66.9063C44.6024 67.0157 44.6358 67.1361 44.643 67.2596C44.643 67.2596 44.8096 67.6897 42.9005 67.9527C42.8539 67.9527 42.8049 67.9527 42.7559 67.9527C42.3137 68.0219 41.8616 67.9917 41.4325 67.8642C41.3256 67.8257 41.2314 67.7583 41.1604 67.6694C41.0894 67.5806 41.0443 67.4738 41.0301 67.3608C41.0159 67.2478 41.0331 67.1331 41.0799 67.0293C41.1267 66.9256 41.2012 66.8368 41.2952 66.7729C41.3296 66.7511 41.3656 66.7322 41.4031 66.7164C41.4031 66.7164 41.5256 64.996 41.4472 64.9345C41.4472 64.9345 41.1237 64.9026 40.1042 67.3063C40.1042 67.3063 39.6385 68.4393 38.8788 67.1195C38.8788 67.1195 38.1436 65.6227 37.825 65.1016C37.8164 65.0878 37.8038 65.0769 37.7888 65.0705C37.7738 65.0642 37.7572 65.0626 37.7414 65.0662C37.7255 65.0697 37.7111 65.078 37.7001 65.0901C37.6892 65.1022 37.6823 65.1174 37.6804 65.1336C37.6259 65.5576 37.6333 65.9873 37.7024 66.4092C37.731 66.5292 37.7971 66.6368 37.8911 66.7164C38.0967 66.8783 38.2689 67.0786 38.3984 67.3063C38.3984 67.3063 38.5381 67.9158 37.1927 67.9871C36.8735 68.0048 36.5537 67.964 36.2491 67.8666C36.1443 67.8247 36.0513 67.7576 35.9783 67.6713C35.9053 67.5849 35.8545 67.482 35.8303 67.3714C35.8061 67.2609 35.8093 67.146 35.8396 67.037C35.8699 66.928 35.9264 66.828 36.0041 66.7459C36.1009 66.6521 36.2107 66.5726 36.33 66.51Z" fill="white"/>
<path d="M47.1771 62.1056C48.3759 61.7721 49.6561 61.9037 50.7625 62.4743L49.0004 63.7524C47.5447 62.3416 47.4295 64.3742 47.8951 65.6375C47.9493 65.7799 48.0364 65.9075 48.1493 66.0096C48.2622 66.1117 48.3977 66.1855 48.5446 66.2249C48.9686 66.3429 49.1793 66.2249 49.2185 65.2737C49.2344 64.9722 49.2113 64.6698 49.1499 64.3742C49.0796 64.1562 48.9977 63.942 48.9048 63.7327C48.748 63.4623 48.6598 63.4574 48.6598 63.1502C48.6598 62.6586 49.3068 62.9167 49.4538 63.2927L50.738 62.4645C50.738 62.4645 51.3752 62.6365 51.8188 63.8457C51.8188 63.8457 52.9437 65.9226 50.2111 67.5324C50.2111 67.5324 48.3853 68.3386 46.758 67.729C46.758 67.729 45.138 67.1908 44.9738 65.4949C44.9714 65.5072 44.6185 63.1182 47.1771 62.1056Z" fill="white"/>
<path d="M53.0956 63.568C53.0417 63.4524 52.9461 63.2509 52.8726 63.1059C52.8464 63.0564 52.817 63.0088 52.7844 62.9633C52.7192 62.8947 52.6719 62.8109 52.6466 62.7195C52.6213 62.6282 52.6189 62.532 52.6395 62.4394C52.6601 62.3469 52.7031 62.2608 52.7647 62.1889C52.8263 62.1169 52.9046 62.0613 52.9927 62.0269C53.1613 61.9348 53.3477 61.8803 53.5392 61.8672C54.2156 61.8033 56.1591 61.6804 56.3233 62.3858C56.3531 62.5131 56.3458 62.6463 56.3024 62.7696C56.2589 62.8928 56.1811 63.0011 56.0782 63.0813C56.0511 63.1013 56.0289 63.1271 56.0132 63.1569C55.9975 63.1867 55.9887 63.2197 55.9875 63.2534C55.9655 63.5458 55.9459 64.2365 56.2792 64.0276C56.2792 64.0276 56.7375 63.6589 56.9997 63.3984C57.0522 63.3452 57.0855 63.2759 57.0944 63.2016C57.1033 63.1272 57.0872 63.0521 57.0487 62.9879C56.8894 62.7274 56.6786 62.2678 57.0487 62.1056C57.0487 62.1056 59.0093 61.3879 60.0313 62.285C60.076 62.3243 60.1115 62.373 60.1353 62.4277C60.1591 62.4823 60.1706 62.5416 60.169 62.6012C60.1674 62.6608 60.1526 62.7193 60.1259 62.7726C60.0991 62.8258 60.0609 62.8725 60.0141 62.9093C59.9399 62.9609 59.8568 62.9984 59.769 63.0199C59.3235 63.1796 58.8996 63.3942 58.5069 63.6589C58.453 63.7044 58.4181 63.7685 58.4091 63.8386C58.4 63.9087 58.4174 63.9796 58.4579 64.0374C58.7765 64.5019 59.7494 65.8463 60.7739 66.5566C60.8904 66.6054 60.9924 66.6836 61.0701 66.7834C61.1478 66.8833 61.1986 67.0016 61.2174 67.1268C61.2208 67.2675 61.1728 67.4045 61.0826 67.5122C60.9923 67.6199 60.866 67.6909 60.7273 67.7118C60.208 67.7982 59.6827 67.8426 59.1564 67.8445C59.1564 67.8445 57.931 67.8961 57.6712 67.4881C57.6712 67.4881 56.1101 65.222 56.0169 65.6251C56.0169 65.6251 55.941 66.3354 56.2498 66.7262C56.2498 66.7262 57.0389 67.4635 55.6322 67.9674C55.6322 67.9674 53.8946 68.3533 52.9363 67.8543C52.8349 67.8071 52.746 67.7367 52.6766 67.6488C52.6073 67.5608 52.5594 67.4578 52.5369 67.348C52.5208 67.2515 52.5329 67.1525 52.5716 67.0627C52.6103 66.9729 52.6739 66.8962 52.755 66.8417C52.9296 66.7129 53.0536 66.5268 53.1054 66.3158C53.1771 65.9302 53.2043 65.5376 53.1863 65.1459L53.1422 63.7547C53.1402 63.6899 53.1243 63.6262 53.0956 63.568Z" fill="white"/>
</g>
<defs>
<clipPath id="clip0_1_71">
<rect width="80" height="70" fill="white"/>
</clipPath>
</defs>
</svg>
